<svg width="16" height="15" viewBox="0 0 16 15" fill="none" xmlns="http://www.w3.org/2000/svg">
<path d="M12.945 0.208496L12.293 1.00329C13.87 2.5262 14.863 4.69496 14.863 7.10537C14.863 9.51579 13.869 11.6845 12.293 13.2075L12.944 14.0022C13.8641 13.1272 14.5991 12.0619 15.102 10.8745C15.6048 9.68705 15.8646 8.40346 15.8647 7.1056C15.8648 5.80775 15.6052 4.52411 15.1025 3.33659C14.5998 2.14906 13.865 1.08371 12.945 0.208496ZM10.673 2.97933L10.022 3.77412C10.4467 4.20893 10.784 4.72752 11.0143 5.2996C11.2445 5.87168 11.363 6.4858 11.3629 7.10611C11.3628 7.72643 11.2441 8.34051 11.0137 8.91251C10.7833 9.48452 10.4458 10.003 10.021 10.4377L10.672 11.2325C11.712 10.1908 12.363 8.72829 12.363 7.10641C12.363 5.48454 11.713 4.021 10.673 2.97933ZM0 3.98037V10.2304H2.804L8 13.3554V0.855371L2.804 3.98037H0ZM7 2.65954V11.5512L3.072 9.18871H1V5.02204H3.072L7 2.65954Z" fill="white"/>
</svg>
