<svg width="22" height="24" viewBox="0 0 22 24" fill="none" xmlns="http://www.w3.org/2000/svg">
<path d="M13.6922 4.24988C13.6922 3.17088 12.5462 2.59988 11.8212 3.31588L7.77958 7.30888C7.65622 7.43106 7.49683 7.49866 7.33161 7.49888H4.02224C3.48545 7.49888 2.97065 7.73594 2.59109 8.15789C2.21153 8.57985 1.99829 9.15215 1.99829 9.74888V14.2459C1.99829 14.8426 2.21153 15.4149 2.59109 15.8369C2.97065 16.2588 3.48545 16.4959 4.02224 16.4959H7.33251C7.49772 16.4961 7.65712 16.5637 7.78048 16.6859L11.8203 20.6799C12.5453 21.3959 13.6922 20.8239 13.6922 19.7459V4.24988ZM8.67731 8.42988L12.3429 4.80688V19.1889L8.67731 15.5649C8.30687 15.1985 7.82834 14.996 7.33251 14.9959H4.02224C3.84331 14.9959 3.67171 14.9169 3.54519 14.7762C3.41867 14.6356 3.34759 14.4448 3.34759 14.2459V9.74988C3.34759 9.55097 3.41867 9.36021 3.54519 9.21955C3.67171 9.0789 3.84331 8.99988 4.02224 8.99988H7.33251C7.82834 8.99974 8.30687 8.79727 8.67731 8.43088V8.42988Z" fill="#B3B3B3"/>
<path d="M17.2832 5.89678C17.3545 5.83821 17.4354 5.79581 17.5214 5.772C17.6073 5.74819 17.6967 5.74344 17.7843 5.75802C17.8719 5.7726 17.9561 5.80622 18.032 5.85697C18.108 5.90771 18.1742 5.97459 18.2269 6.05378C19.3739 7.77367 19.9919 9.85873 19.989 11.9998C19.9915 14.1409 19.3733 16.226 18.226 17.9458C18.1173 18.0985 17.9594 18.1983 17.7857 18.2239C17.6121 18.2496 17.4363 18.1991 17.2955 18.0833C17.1546 17.9674 17.0599 17.7952 17.0313 17.6031C17.0026 17.4109 17.0424 17.2139 17.142 17.0538C18.1173 15.5921 18.6425 13.8197 18.6397 11.9998C18.6425 10.1799 18.1173 8.40747 17.142 6.94578C17.0893 6.86659 17.0512 6.77664 17.0298 6.68107C17.0084 6.5855 17.0041 6.48617 17.0172 6.38876C17.0303 6.29135 17.0606 6.19777 17.1062 6.11335C17.1519 6.02894 17.212 5.95535 17.2832 5.89678Z" fill="#B3B3B3"/>
<path d="M15.6198 8.36978C15.6977 8.32281 15.7832 8.29336 15.8713 8.28312C15.9595 8.27287 16.0486 8.28204 16.1335 8.31008C16.2185 8.33813 16.2976 8.3845 16.3665 8.44657C16.4353 8.50863 16.4924 8.58515 16.5347 8.67178C17.0168 9.66178 17.2903 10.7968 17.2903 11.9998C17.2918 13.1618 17.032 14.3058 16.5347 15.3278C16.4495 15.5028 16.3053 15.6331 16.1337 15.6899C15.9621 15.7467 15.7773 15.7255 15.6198 15.6308C15.4624 15.5361 15.3452 15.3758 15.2941 15.185C15.243 14.9943 15.2621 14.7888 15.3473 14.6138C15.7251 13.8368 15.941 12.9478 15.941 11.9998C15.941 11.0518 15.7251 10.1628 15.3473 9.38578C15.3051 9.29911 15.2786 9.20405 15.2695 9.10603C15.2603 9.008 15.2686 8.90893 15.294 8.81448C15.3193 8.72003 15.3611 8.63205 15.417 8.55557C15.4729 8.4791 15.5418 8.41562 15.6198 8.36878V8.36978Z" fill="#B3B3B3"/>
</svg>
