<svg width="22" height="24" viewBox="0 0 22 24" fill="none" xmlns="http://www.w3.org/2000/svg">
<path d="M14.7175 4H18.3157V8" stroke="#B3B3B3" stroke-width="2" stroke-linecap="round" stroke-linejoin="round"/>
<path d="M12.9185 10L18.3156 4" stroke="#B3B3B3" stroke-width="2" stroke-linecap="round" stroke-linejoin="round"/>
<path d="M7.52122 20H3.9231V16" stroke="#B3B3B3" stroke-width="2" stroke-linecap="round" stroke-linejoin="round"/>
<path d="M3.9231 20L9.32028 14" stroke="#B3B3B3" stroke-width="2" stroke-linecap="round" stroke-linejoin="round"/>
<path d="M13.8179 4.24988C13.8179 3.17088 12.6719 2.59988 11.9469 3.31588L7.90531 7.30888C7.78195 7.43106 7.62256 7.49866 7.45735 7.49888H4.14797C3.61119 7.49888 3.09639 7.73594 2.71682 8.15789C2.33726 8.57985 2.12402 9.15215 2.12402 9.74888V14.2459C2.12402 14.8426 2.33726 15.4149 2.71682 15.8369C3.09639 16.2588 3.61119 16.4959 4.14797 16.4959H7.45824C7.62346 16.4961 7.78285 16.5637 7.90621 16.6859L11.946 20.6799C12.671 21.3959 13.8179 20.8239 13.8179 19.7459V4.24988ZM8.80304 8.42988L12.4686 4.80688V19.1889L8.80304 15.5649C8.43261 15.1985 7.95407 14.996 7.45824 14.9959H4.14797C3.96904 14.9959 3.79744 14.9169 3.67092 14.7762C3.5444 14.6356 3.47332 14.4448 3.47332 14.2459V9.74988C3.47332 9.55097 3.5444 9.36021 3.67092 9.21955C3.79744 9.0789 3.96904 8.99988 4.14797 8.99988H7.45824C7.95407 8.99974 8.43261 8.79727 8.80304 8.43088V8.42988Z" fill="black"/>
<path d="M17.409 5.89678C17.4802 5.83821 17.5611 5.79581 17.6471 5.772C17.7331 5.74819 17.8224 5.74344 17.91 5.75802C17.9977 5.7726 18.0818 5.80622 18.1578 5.85697C18.2337 5.90771 18.2999 5.97459 18.3526 6.05378C19.4996 7.77367 20.1176 9.85873 20.1148 11.9998C20.1173 14.1409 19.499 16.226 18.3517 17.9458C18.243 18.0985 18.0851 18.1983 17.9115 18.2239C17.7378 18.2496 17.562 18.1991 17.4212 18.0833C17.2804 17.9674 17.1856 17.7952 17.157 17.6031C17.1284 17.4109 17.1681 17.2139 17.2677 17.0538C18.243 15.5921 18.7683 13.8197 18.7655 11.9998C18.7683 10.1799 18.243 8.40747 17.2677 6.94578C17.2151 6.86659 17.1769 6.77664 17.1555 6.68107C17.1341 6.5855 17.1298 6.48617 17.1429 6.38876C17.156 6.29135 17.1863 6.19777 17.2319 6.11335C17.2776 6.02894 17.3377 5.95535 17.409 5.89678Z" fill="black"/>
<path d="M15.7456 8.36978C15.8235 8.32281 15.9089 8.29336 15.9971 8.28312C16.0852 8.27287 16.1743 8.28204 16.2593 8.31008C16.3442 8.33813 16.4234 8.3845 16.4922 8.44657C16.561 8.50863 16.6182 8.58515 16.6604 8.67178C17.1425 9.66178 17.416 10.7968 17.416 11.9998C17.4175 13.1618 17.1578 14.3058 16.6604 15.3278C16.5752 15.5028 16.431 15.6331 16.2594 15.6899C16.0879 15.7467 15.903 15.7255 15.7456 15.6308C15.5881 15.5361 15.4709 15.3758 15.4198 15.185C15.3687 14.9943 15.3878 14.7888 15.473 14.6138C15.8508 13.8368 16.0667 12.9478 16.0667 11.9998C16.0667 11.0518 15.8508 10.1628 15.473 9.38578C15.4308 9.29911 15.4044 9.20405 15.3952 9.10603C15.3861 9.008 15.3944 8.90893 15.4197 8.81448C15.445 8.72003 15.4868 8.63205 15.5427 8.55557C15.5986 8.4791 15.6676 8.41562 15.7456 8.36878V8.36978Z" fill="black"/>
</svg>
